<?xml version="1.0" encoding="UTF-8"?>
<svg xmlns="http://www.w3.org/2000/svg" width="510.95000000000005" height="381.8" viewBox="0 0 510.95000000000005 381.8">
  <!-- Visible icon only; FFDec frame background and invisible guides removed. -->
  <g transform="matrix(1 0 0 1 -3 17.3)">
    <path d="M513.95 145.25 L294.7 364.5 49.65 327.05 3.0 201.95 222.25 -17.3 467.15 20.1 470.65 30.6 437.05 64.15 460.55 127.0 510.5 134.6 513.95 145.25 M325.5 94.0 L363.25 55.7 220.65 33.8 182.8 72.2 325.5 94.0 M432.15 69.3 L258.45 242.85 288.75 324.3 462.55 150.7 432.15 69.3 M78.3 296.05 L280.45 326.85 251.75 249.7 49.65 219.0 78.3 296.05" fill="#ffffff" fill-rule="evenodd" stroke="none"/>
  </g>
</svg>
